<?xml version="1.0" encoding="UTF-8" standalone="no"?>
<!DOCTYPE svg PUBLIC "-//W3C//DTD SVG 1.1//EN"
 "http://www.w3.org/Graphics/SVG/1.1/DTD/svg11.dtd">
<!-- Generated by graphviz version 2.43.0 (0)
 -->
<!-- Title: workflow Pages: 1 -->
<svg width="373pt" height="621pt"
 viewBox="0.00 0.00 372.50 621.00" xmlns="http://www.w3.org/2000/svg" xmlns:xlink="http://www.w3.org/1999/xlink">
<g id="graph0" class="graph" transform="scale(1 1) rotate(0) translate(4 617)">
<title>workflow</title>
<g id="clust1" class="cluster">
<title>cluster_inputs</title>
<polygon fill="#eeeeee" stroke="#818281" stroke-width="2" points="76.5,-529 76.5,-605 308.5,-605 308.5,-529 76.5,-529"/>
<text text-anchor="middle" x="192.5" y="-589.8" font-family="Fira Sans" font-size="14.00">Workflow Inputs</text>
</g>
<g id="clust2" class="cluster">
<title>cluster_outputs</title>
<polygon fill="#eeeeee" stroke="#818281" stroke-width="2" points="164.5,-8 164.5,-84 328.5,-84 328.5,-8 164.5,-8"/>
<text text-anchor="middle" x="246.5" y="-15.8" font-family="Fira Sans" font-size="14.00">Workflow Outputs</text>
</g>
<!-- geojson -->
<g id="node1" class="node">
<title>geojson</title>
<polygon fill="#6fc1b5" stroke="#0f9884" stroke-width="2" points="157,-537.5 157,-573.5 228,-573.5 228,-537.5 157,-537.5"/>
<text text-anchor="middle" x="192.5" y="-551.8" font-family="Fira Sans" font-size="14.00">geojson</text>
</g>
<!-- get_soil -->
<g id="node5" class="node">
<title>get_soil</title>
<polygon fill="#c5e0b4" stroke="#385723" stroke-width="2" points="0,-454.5 0,-490.5 69,-490.5 69,-454.5 0,-454.5"/>
<text text-anchor="middle" x="34.5" y="-468.8" font-family="Fira Sans" font-size="14.00">get_soil</text>
</g>
<!-- geojson&#45;&gt;get_soil -->
<g id="edge1" class="edge">
<title>geojson&#45;&gt;get_soil</title>
<path fill="none" stroke="#385723" stroke-width="2" d="M163.76,-537.45C158.42,-534.51 152.84,-531.57 147.5,-529 136.71,-523.82 133.38,-523.98 122.5,-519 106.7,-511.77 89.66,-503.17 74.83,-495.39"/>
<polygon fill="#385723" stroke="#385723" stroke-width="2" points="76.38,-492.25 65.91,-490.68 73.11,-498.44 76.38,-492.25"/>
<text text-anchor="middle" x="140" y="-511.8" font-family="Fira Sans" font-size="9.00" fill="#818281">geojson</text>
</g>
<!-- get_weather -->
<g id="node6" class="node">
<title>get_weather</title>
<polygon fill="#c5e0b4" stroke="#385723" stroke-width="2" points="87.5,-454.5 87.5,-490.5 189.5,-490.5 189.5,-454.5 87.5,-454.5"/>
<text text-anchor="middle" x="138.5" y="-468.8" font-family="Fira Sans" font-size="14.00">get_weather</text>
</g>
<!-- geojson&#45;&gt;get_weather -->
<g id="edge3" class="edge">
<title>geojson&#45;&gt;get_weather</title>
<path fill="none" stroke="#385723" stroke-width="2" d="M181.05,-537.32C173.67,-526.26 163.95,-511.68 155.66,-499.25"/>
<polygon fill="#385723" stroke="#385723" stroke-width="2" points="158.39,-497.03 149.94,-490.65 152.57,-500.92 158.39,-497.03"/>
<text text-anchor="middle" x="186" y="-511.8" font-family="Fira Sans" font-size="9.00" fill="#818281">geojson</text>
</g>
<!-- merge_features -->
<g id="node7" class="node">
<title>merge_features</title>
<polygon fill="#c5e0b4" stroke="#385723" stroke-width="2" points="76,-371.5 76,-407.5 201,-407.5 201,-371.5 76,-371.5"/>
<text text-anchor="middle" x="138.5" y="-385.8" font-family="Fira Sans" font-size="14.00">merge_features</text>
</g>
<!-- geojson&#45;&gt;merge_features -->
<g id="edge4" class="edge">
<title>geojson&#45;&gt;merge_features</title>
<path fill="none" stroke="#385723" stroke-width="2" d="M201.42,-537.25C203.9,-531.59 206.25,-525.16 207.5,-519 211.51,-499.19 208.15,-478.22 198.5,-454 192.48,-438.89 180.97,-425.29 169.63,-414.6"/>
<polygon fill="#385723" stroke="#385723" stroke-width="2" points="171.67,-411.72 161.88,-407.67 167,-416.94 171.67,-411.72"/>
<text text-anchor="middle" x="225" y="-470.3" font-family="Fira Sans" font-size="9.00" fill="#818281">geojson</text>
</g>
<!-- plot_yields -->
<g id="node10" class="node">
<title>plot_yields</title>
<polygon fill="#c5e0b4" stroke="#385723" stroke-width="2" points="201.5,-122.5 201.5,-158.5 291.5,-158.5 291.5,-122.5 201.5,-122.5"/>
<text text-anchor="middle" x="246.5" y="-136.8" font-family="Fira Sans" font-size="14.00">plot_yields</text>
</g>
<!-- geojson&#45;&gt;plot_yields -->
<g id="edge13" class="edge">
<title>geojson&#45;&gt;plot_yields</title>
<path fill="none" stroke="#385723" stroke-width="2" d="M221.04,-537.4C249.34,-519.42 288.5,-491.33 288.5,-473.5 288.5,-473.5 288.5,-473.5 288.5,-222.5 288.5,-202.24 278.02,-182.01 267.52,-166.83"/>
<polygon fill="#385723" stroke="#385723" stroke-width="2" points="270.16,-164.51 261.43,-158.52 264.52,-168.65 270.16,-164.51"/>
<text text-anchor="middle" x="306" y="-345.8" font-family="Fira Sans" font-size="9.00" fill="#818281">geojson</text>
</g>
<!-- soil -->
<g id="node2" class="node">
<title>soil</title>
<polygon fill="#6fc1b5" stroke="#0f9884" stroke-width="2" points="84.5,-537.5 84.5,-573.5 138.5,-573.5 138.5,-537.5 84.5,-537.5"/>
<text text-anchor="middle" x="111.5" y="-551.8" font-family="Fira Sans" font-size="14.00">soil</text>
</g>
<!-- soil&#45;&gt;get_soil -->
<g id="edge2" class="edge">
<title>soil&#45;&gt;get_soil</title>
<path fill="none" stroke="#385723" stroke-width="2" d="M84.48,-545.97C70.9,-540.36 55.28,-531.67 45.5,-519 41.39,-513.68 38.79,-507.05 37.15,-500.51"/>
<polygon fill="#385723" stroke="#385723" stroke-width="2" points="40.56,-499.7 35.29,-490.51 33.68,-500.98 40.56,-499.7"/>
<text text-anchor="middle" x="68.5" y="-511.8" font-family="Fira Sans" font-size="9.00" fill="#818281">soil_cache</text>
</g>
<!-- yield -->
<g id="node3" class="node">
<title>yield</title>
<polygon fill="#6fc1b5" stroke="#0f9884" stroke-width="2" points="246.5,-537.5 246.5,-573.5 300.5,-573.5 300.5,-537.5 246.5,-537.5"/>
<text text-anchor="middle" x="273.5" y="-551.8" font-family="Fira Sans" font-size="14.00">yield</text>
</g>
<!-- train_model -->
<g id="node8" class="node">
<title>train_model</title>
<polygon fill="#c5e0b4" stroke="#385723" stroke-width="2" points="162.5,-288.5 162.5,-324.5 260.5,-324.5 260.5,-288.5 162.5,-288.5"/>
<text text-anchor="middle" x="211.5" y="-302.8" font-family="Fira Sans" font-size="14.00">train_model</text>
</g>
<!-- yield&#45;&gt;train_model -->
<g id="edge7" class="edge">
<title>yield&#45;&gt;train_model</title>
<path fill="none" stroke="#385723" stroke-width="2" d="M290.68,-537.37C295.23,-531.91 299.66,-525.57 302.5,-519 333.8,-446.65 371.15,-406.55 324.5,-343 311.9,-325.83 291,-316.75 270.58,-312.01"/>
<polygon fill="#385723" stroke="#385723" stroke-width="2" points="271.13,-308.55 260.64,-310.02 269.76,-315.41 271.13,-308.55"/>
<text text-anchor="middle" x="353.5" y="-428.8" font-family="Fira Sans" font-size="9.00" fill="#818281">yield</text>
</g>
<!-- iowa_county_yields -->
<g id="node4" class="node">
<title>iowa_county_yields</title>
<polygon fill="#f8cbad" stroke="#823909" stroke-width="2" points="172,-39.5 172,-75.5 321,-75.5 321,-39.5 172,-39.5"/>
<text text-anchor="middle" x="246.5" y="-53.8" font-family="Fira Sans" font-size="14.00">iowa_county_yields</text>
</g>
<!-- get_soil&#45;&gt;merge_features -->
<g id="edge5" class="edge">
<title>get_soil&#45;&gt;merge_features</title>
<path fill="none" stroke="#385723" stroke-width="2" d="M56.56,-454.32C71.59,-442.62 91.68,-426.97 108.2,-414.1"/>
<polygon fill="#385723" stroke="#385723" stroke-width="2" points="110.74,-416.56 116.48,-407.65 106.44,-411.04 110.74,-416.56"/>
<text text-anchor="middle" x="100" y="-428.8" font-family="Fira Sans" font-size="9.00" fill="#818281">soil</text>
</g>
<!-- get_weather&#45;&gt;merge_features -->
<g id="edge6" class="edge">
<title>get_weather&#45;&gt;merge_features</title>
<path fill="none" stroke="#385723" stroke-width="2" d="M138.5,-454.32C138.5,-443.69 138.5,-429.81 138.5,-417.7"/>
<polygon fill="#385723" stroke="#385723" stroke-width="2" points="142,-417.65 138.5,-407.65 135,-417.65 142,-417.65"/>
<text text-anchor="middle" x="157" y="-428.8" font-family="Fira Sans" font-size="9.00" fill="#818281">weather</text>
</g>
<!-- merge_features&#45;&gt;train_model -->
<g id="edge8" class="edge">
<title>merge_features&#45;&gt;train_model</title>
<path fill="none" stroke="#385723" stroke-width="2" d="M153.98,-371.32C164.24,-359.94 177.86,-344.83 189.27,-332.16"/>
<polygon fill="#385723" stroke="#385723" stroke-width="2" points="191.95,-334.42 196.04,-324.65 186.75,-329.74 191.95,-334.42"/>
<text text-anchor="middle" x="197" y="-345.8" font-family="Fira Sans" font-size="9.00" fill="#818281">features</text>
</g>
<!-- predict_yields -->
<g id="node9" class="node">
<title>predict_yields</title>
<polygon fill="#c5e0b4" stroke="#385723" stroke-width="2" points="126.5,-205.5 126.5,-241.5 238.5,-241.5 238.5,-205.5 126.5,-205.5"/>
<text text-anchor="middle" x="182.5" y="-219.8" font-family="Fira Sans" font-size="14.00">predict_yields</text>
</g>
<!-- merge_features&#45;&gt;predict_yields -->
<g id="edge11" class="edge">
<title>merge_features&#45;&gt;predict_yields</title>
<path fill="none" stroke="#385723" stroke-width="2" d="M128.51,-371.19C118.05,-350.68 104.68,-315.77 116.5,-288 123.14,-272.4 135.7,-258.78 148.1,-248.19"/>
<polygon fill="#385723" stroke="#385723" stroke-width="2" points="150.57,-250.69 156.16,-241.68 146.18,-245.24 150.57,-250.69"/>
<text text-anchor="middle" x="135" y="-304.3" font-family="Fira Sans" font-size="9.00" fill="#818281">features</text>
</g>
<!-- train_model&#45;&gt;predict_yields -->
<g id="edge9" class="edge">
<title>train_model&#45;&gt;predict_yields</title>
<path fill="none" stroke="#385723" stroke-width="2" d="M186.55,-288.48C180.88,-283.27 175.61,-277.03 172.5,-270 169.99,-264.31 169.88,-257.94 170.97,-251.8"/>
<polygon fill="#385723" stroke="#385723" stroke-width="2" points="174.43,-252.43 173.71,-241.86 167.68,-250.58 174.43,-252.43"/>
<text text-anchor="middle" x="186.5" y="-262.8" font-family="Fira Sans" font-size="9.00" fill="#818281">model</text>
</g>
<!-- train_model&#45;&gt;predict_yields -->
<g id="edge10" class="edge">
<title>train_model&#45;&gt;predict_yields</title>
<path fill="none" stroke="#385723" stroke-width="2" d="M208.34,-288.37C206.5,-279.72 203.87,-269.15 200.5,-260 199.41,-257.05 198.14,-254.02 196.79,-251.04"/>
<polygon fill="#385723" stroke="#385723" stroke-width="2" points="199.83,-249.29 192.3,-241.83 193.53,-252.36 199.83,-249.29"/>
<text text-anchor="middle" x="217" y="-262.8" font-family="Fira Sans" font-size="9.00" fill="#818281">scaler</text>
</g>
<!-- predict_yields&#45;&gt;plot_yields -->
<g id="edge12" class="edge">
<title>predict_yields&#45;&gt;plot_yields</title>
<path fill="none" stroke="#385723" stroke-width="2" d="M196.07,-205.32C204.98,-194.05 216.78,-179.11 226.73,-166.52"/>
<polygon fill="#385723" stroke="#385723" stroke-width="2" points="229.49,-168.67 232.95,-158.65 224,-164.33 229.49,-168.67"/>
<text text-anchor="middle" x="243" y="-179.8" font-family="Fira Sans" font-size="9.00" fill="#818281">predictions</text>
</g>
<!-- plot_yields&#45;&gt;iowa_county_yields -->
<g id="edge14" class="edge">
<title>plot_yields&#45;&gt;iowa_county_yields</title>
<path fill="none" stroke="#385723" stroke-width="2" d="M246.5,-122.32C246.5,-111.69 246.5,-97.81 246.5,-85.7"/>
<polygon fill="#385723" stroke="#385723" stroke-width="2" points="250,-85.65 246.5,-75.65 243,-85.65 250,-85.65"/>
<text text-anchor="middle" x="290" y="-96.8" font-family="Fira Sans" font-size="9.00" fill="#818281">iowa_county_yields</text>
</g>
</g>
</svg>
